<?xml version="1.0" encoding="UTF-8"?>
<svg id="IMDb_Circle_Format_Black_BKG_White_Logo" xmlns="http://www.w3.org/2000/svg" version="1.1" viewBox="0 0 250 250">
  <!-- Generator: Adobe Illustrator 29.2.1, SVG Export Plug-In . SVG Version: 2.1.0 Build 116)  -->
  <defs>
    <style>
      .st0 {
        fill: #f5f5f5;
      }

      .st1 {
        fill: #161616;
      }
    </style>
  </defs>
  <circle id="Circle_161616" class="st1" cx="125" cy="125" r="125"/>
  <path id="IMDb_Logo" class="st0" d="M53,87.2v74.2h-19.2v-74.2h19.2ZM94.1,87.2l-4.5,34.7-2.7-18.8c-.8-6-1.6-11.3-2.3-15.8h-25v74.2h16.9v-49c0,0,7.2,49,7.2,49h12l6.8-50.1v50.1h16.9v-74.2h-25.2ZM125.8,161.4v-74.2h14.4c9.3,0,14.7.4,18,1.3,3.3.9,5.8,2.3,7.5,4.2,1.7,1.9,2.8,4.1,3.2,6.5.4,2.4.7,7.1.7,14.1v26c0,6.7-.4,11.1-1,13.3-.6,2.2-1.7,4-3.3,5.3-1.5,1.3-3.5,2.2-5.8,2.7-2.3.5-5.8.8-10.4.8h-23.3ZM145.1,99.9v48.7c2.8,0,4.5-.5,5.1-1.7.7-1.1,1-4.1,1-9.1v-28.7c0-3.3-.1-5.5-.3-6.4-.2-1-.7-1.7-1.5-2.1-.8-.5-2.2-.7-4.3-.7ZM194.7,87.2v24.1c1.5-1.8,3.3-3.1,5.1-4,1.9-.9,4.7-1.3,6.9-1.3s4.8.4,6.7,1.2c1.9.8,3.3,1.9,4.3,3.3,1,1.4,1.6,2.8,1.8,4.2.2,1.4.3,4.3.3,8.8v20.8c0,4.4-.3,7.7-.9,9.9-.6,2.2-2,4.1-4.2,5.7-2.2,1.6-4.9,2.4-7.9,2.4s-5-.5-6.9-1.4c-1.9-1-3.6-2.4-5.2-4.3l-1.2,4.7h-17.3v-74.2h18.6ZM201.2,124.4c0-3.1-.2-5.2-.6-6.1-.4-.9-2-1.4-3.2-1.4s-1.9.4-2.2,1.3c-.3.9-.5,2.9-.5,6.3v19.6c0,3.3.2,5.4.6,6.3.4.9,1.2,1.4,2.3,1.4s2.7-.5,3.1-1.4c.4-.9.5-3.2.5-6.8v-19Z"/>
</svg>