<?xml version="1.0" encoding="UTF-8"?>
<svg id="IMDbPro_Square_Format_White_BKG_Color_Logo" xmlns="http://www.w3.org/2000/svg" version="1.1" viewBox="0 0 250 250">
  <!-- Generator: Adobe Illustrator 29.2.1, SVG Export Plug-In . SVG Version: 2.1.0 Build 116)  -->
  <defs>
    <style>
      .st0 {
        fill: #00abd2;
      }

      .st1 {
        fill: #f5f5f5;
      }

      .st2 {
        fill: #161616;
      }
    </style>
  </defs>
  <path id="BKG_f5f5f5" class="st1" d="M233.3.2H17C7.9.8.7,7.9.2,16.8v216.5c.6,9.1,7.4,16.1,16.2,16.9.2,0,.3,0,.5,0h216.6c.2,0,.3,0,.5,0,9.1-.8,16.2-8.6,16.2-17.8V18c0-9.3-7.2-17.1-16.5-17.8-.1,0-.3,0-.4,0h0Z"/>
  <path id="IMDb" class="st2" d="M99,43.6h20.1v63.2h-13.5v-42.6s-5.4,42.6-5.4,42.6h-9.6l-5.7-41.7v41.7h-13.6v-63.2h20c.6,3.8,1.2,8.3,1.9,13.5l2.2,16.1,3.6-29.5ZM50.8,106.8h15.4v-63.2h-15.4v63.2ZM158.8,53.8c.3,2.1.5,6.1.5,12v22.2c0,5.7-.3,9.5-.8,11.4-.5,1.9-1.4,3.4-2.6,4.5-1.2,1.1-2.8,1.8-4.6,2.3-1.8.4-4.6.6-8.3.6h-18.7v-63.2h11.5c7.5,0,11.8.4,14.4,1.1,2.6.7,4.6,1.9,6,3.6,1.4,1.7,2.2,3.5,2.6,5.5ZM144.7,62.2c0-2.9,0-4.7-.3-5.5-.2-.8-.6-1.4-1.2-1.8-.6-.4-1.8-.6-3.4-.6v41.5c2.2,0,3.6-.5,4.1-1.4.5-1,.8-3.5.8-7.8v-24.5ZM199.5,74.5v17.7c0,3.8-.2,6.6-.7,8.5-.5,1.8-1.6,3.5-3.4,4.8-1.8,1.4-3.9,2.1-6.3,2.1s-4-.4-5.5-1.2c-1.5-.8-2.9-2-4.1-3.6l-1,4h-13.9v-63.2h14.8v20.6c1.2-1.5,2.6-2.6,4.1-3.4,1.5-.8,3.8-1.1,5.6-1.1s3.8.3,5.3,1c1.5.7,2.6,1.6,3.4,2.8.8,1.2,1.3,2.4,1.4,3.6.2,1.2.2,3.6.2,7.5ZM184.7,75.3c0-2.7-.2-4.4-.5-5.2-.3-.8-1.6-1.2-2.5-1.2s-1.5.4-1.8,1.1c-.3.7-.4,2.5-.4,5.4v16.7c0,2.8.2,4.6.5,5.3.3.8.9,1.2,1.8,1.2s2.2-.4,2.5-1.2c.3-.8.4-2.8.4-5.8v-16.2Z"/>
  <path id="Pro" class="st0" d="M198.3,152.8c-.8-2.5-2.4-4.9-4.6-7.2-2.2-2.3-5.5-4.2-9.5-5.6-4-1.4-9-2.1-14.6-2.1s-12.3,1.1-16.7,3.3c-4.4,2.2-7.5,5.2-9.2,8.9-1.7,3.6-2.5,8.7-2.5,15.1v17.4c0,5.8.5,10.3,1.4,13.2.9,3,2.5,5.6,4.7,7.7,2.2,2.1,5.3,3.7,9.2,4.8,3.8,1,8.6,1.5,14.1,1.5s9.4-.6,13.3-1.8c3.9-1.2,7.1-3.1,9.6-5.7,2.5-2.6,4.1-5.4,4.9-8.3.7-2.9,1.1-7.5,1.1-13.6v-16.6c0-4.9-.4-8.6-1.2-11ZM174.4,185.7c0,4.5-.2,7.5-.6,8.7-.4,1.2-2.3,1.8-3.7,1.8s-2.3-.5-2.8-1.7c-.4-1.1-.7-3.8-.7-8v-25c0-4.3.2-7,.6-8.1.4-1.1,1.3-1.6,2.7-1.6s3.3.6,3.8,1.8c.5,1.2.7,3.9.7,7.8v24.3ZM96.7,120.3c-1.9-2.1-4.7-3.6-8.3-4.7-3.6-1-8.8-1.6-15.4-1.6h-22.3v94.5h22.9v-37.5h5.6c5.4,0,9.8-.8,13.1-2.2,3.4-1.5,5.8-3.8,7.1-6.7,1.3-2.8,1.9-7.2,1.9-13.3v-8.1c0-5.8-.3-10.2-1-13-.7-2.9-1.9-5.4-3.8-7.4ZM81.3,144.4c0,4-.8,5.6-1.4,6.2-.9.9-2.6,1.3-5,1.3s-.8,0-1.2,0v-21.7c3.8,0,5.4.7,6,1.2.7.5,1.6,1.9,1.6,5.5v7.5ZM144,138l-6.9,20.6c-3.7,0-6.3,1.2-8,2.1-1.7,1-2.8,2.3-3.2,4-.4,1.7-.6,5.6-.6,11.8v32h-20.3v-70.6s20.6,0,20.6,0v6.8c3.7-4.7,12.8-6.4,18.4-6.8Z"/>
</svg>